REM DIRINDEX 1\6,1\2\7,1\2\8,1\2\9,1\3\10,1\3\11,1\4\12,1\4\13,1\4\14,1\5\15,1\5\16,1\5\17
REM DIRNAME cjc041,folder01,folder02,folder03,folder04,folder05,folder06,folder07,folder08,folder09,folder10,folder11,folder12,folder13,folder14,folder15,folder16
TITLE ""
FILE "3Q_t_0231-0246.mp3" MP3
  TRACK 01 AUDIO
    TITLE "10:cjc041_2067"
    INDEX 01 00:00:00
  TRACK 02 AUDIO
    TITLE "0:"
    INDEX 01 00:01:03
  TRACK 03 AUDIO
    TITLE "11:cjc041_2068"
    INDEX 01 00:01:58
  TRACK 04 AUDIO
    TITLE "0:"
    INDEX 01 00:02:63
  TRACK 05 AUDIO
    TITLE "10:cjc041_2069"
    INDEX 01 00:03:43
  TRACK 06 AUDIO
    TITLE "0:"
    INDEX 01 00:04:54
  TRACK 07 AUDIO
    TITLE "11:cjc041_2070"
    INDEX 01 00:05:34
  TRACK 08 AUDIO
    TITLE "0:"
    INDEX 01 00:06:35
  TRACK 09 AUDIO
    TITLE "10:cjc041_2071"
    INDEX 01 00:07:15
  TRACK 10 AUDIO
    TITLE "0:"
    INDEX 01 00:08:32
  TRACK 11 AUDIO
    TITLE "11:cjc041_2072"
    INDEX 01 00:09:08
  TRACK 12 AUDIO
    TITLE "0:"
    INDEX 01 00:10:31
  TRACK 13 AUDIO
    TITLE "10:cjc041_2073"
    INDEX 01 00:11:09
  TRACK 14 AUDIO
    TITLE "0:"
    INDEX 01 00:12:26
  TRACK 15 AUDIO
    TITLE "11:cjc041_2074"
    INDEX 01 00:13:04
  TRACK 16 AUDIO
    TITLE "0:"
    INDEX 01 00:16:59
  TRACK 17 AUDIO
    TITLE "10:cjc041_2075"
    INDEX 01 00:17:35
  TRACK 18 AUDIO
    TITLE "0:"
    INDEX 01 00:18:60
  TRACK 19 AUDIO
    TITLE "11:cjc041_2076"
    INDEX 01 00:19:36
  TRACK 20 AUDIO
    TITLE "0:"
    INDEX 01 00:21:11
  TRACK 21 AUDIO
    TITLE "10:cjc041_2077"
    INDEX 01 00:21:62
  TRACK 22 AUDIO
    TITLE "0:"
    INDEX 01 00:23:24
  TRACK 23 AUDIO
    TITLE "11:cjc041_2078"
    INDEX 01 00:24:04
  TRACK 24 AUDIO
    TITLE "0:"
    INDEX 01 00:25:23
  TRACK 25 AUDIO
    TITLE "10:cjc041_2079"
    INDEX 01 00:26:07
  TRACK 26 AUDIO
    TITLE "0:"
    INDEX 01 00:27:30
  TRACK 27 AUDIO
    TITLE "11:cjc041_2080"
    INDEX 01 00:28:08
  TRACK 28 AUDIO
    TITLE "0:"
    INDEX 01 00:34:38
  TRACK 29 AUDIO
    TITLE "10:cjc041_2081"
    INDEX 01 00:35:17
  TRACK 30 AUDIO
    TITLE "0:"
    INDEX 01 00:36:21
  TRACK 31 AUDIO
    TITLE "11:cjc041_2082"
    INDEX 01 00:36:68
  TRACK 32 AUDIO
    TITLE "0:"
    INDEX 01 00:38:18
  TRACK 33 AUDIO
    TITLE "10:cjc041_2083"
    INDEX 01 00:38:71
  TRACK 34 AUDIO
    TITLE "0:"
    INDEX 01 00:40:21
  TRACK 35 AUDIO
    TITLE "11:cjc041_2084"
    INDEX 01 00:41:00
  TRACK 36 AUDIO
    TITLE "0:"
    INDEX 01 00:42:45
  TRACK 37 AUDIO
    TITLE "10:cjc041_2085"
    INDEX 01 00:43:23
  TRACK 38 AUDIO
    TITLE "0:"
    INDEX 01 00:44:54
  TRACK 39 AUDIO
    TITLE "11:cjc041_2086"
    INDEX 01 00:45:33
  TRACK 40 AUDIO
    TITLE "0:"
    INDEX 01 00:48:10
  TRACK 41 AUDIO
    TITLE "10:cjc041_2087"
    INDEX 01 00:48:71
  TRACK 42 AUDIO
    TITLE "0:"
    INDEX 01 00:50:15
  TRACK 43 AUDIO
    TITLE "11:cjc041_2088"
    INDEX 01 00:50:70
  TRACK 44 AUDIO
    TITLE "0:"
    INDEX 01 00:52:14
  TRACK 45 AUDIO
    TITLE "10:cjc041_2089"
    INDEX 01 00:52:73
  TRACK 46 AUDIO
    TITLE "0:"
    INDEX 01 00:54:11
  TRACK 47 AUDIO
    TITLE "11:cjc041_2090"
    INDEX 01 00:54:64
  TRACK 48 AUDIO
    TITLE "0:"
    INDEX 01 00:56:20
  TRACK 49 AUDIO
    TITLE "10:cjc041_2091"
    INDEX 01 00:57:03
  TRACK 50 AUDIO
    TITLE "0:"
    INDEX 01 00:58:18
  TRACK 51 AUDIO
    TITLE "11:cjc041_2092"
    INDEX 01 00:58:71
  TRACK 52 AUDIO
    TITLE "0:"
    INDEX 01 01:01:33
  TRACK 53 AUDIO
    TITLE "10:cjc041_2093"
    INDEX 01 01:02:10
  TRACK 54 AUDIO
    TITLE "0:"
    INDEX 01 01:03:41
  TRACK 55 AUDIO
    TITLE "11:cjc041_2094"
    INDEX 01 01:04:17
  TRACK 56 AUDIO
    TITLE "0:"
    INDEX 01 01:05:32
  TRACK 57 AUDIO
    TITLE "10:cjc041_2095"
    INDEX 01 01:06:06
  TRACK 58 AUDIO
    TITLE "0:"
    INDEX 01 01:07:21
  TRACK 59 AUDIO
    TITLE "11:cjc041_2096"
    INDEX 01 01:07:74
  TRACK 60 AUDIO
    TITLE "0:"
    INDEX 01 01:09:22
  TRACK 61 AUDIO
    TITLE "10:cjc041_2097"
    INDEX 01 01:10:02
  TRACK 62 AUDIO
    TITLE "0:"
    INDEX 01 01:11:27
  TRACK 63 AUDIO
    TITLE "11:cjc041_2098"
    INDEX 01 01:12:11
  TRACK 64 AUDIO
    TITLE "0:"
    INDEX 01 01:13:36
